<svg xmlns="http://www.w3.org/2000/svg" width="60" height="60" fill="none"><g fill="#212121" clip-path="url(#a)"><path d="M5.006 26.701v-.525a.879.879 0 0 0-1.757 0v.526a.879.879 0 1 0 1.757 0Zm-1.757 3.904a.879.879 0 1 0 1.757 0v-.526a.879.879 0 0 0-1.757 0v.526Zm2.45-1.335h.526a.879.879 0 0 0 0-1.758h-.526a.879.879 0 0 0 0 1.757Zm-3.669 0h.526a.879.879 0 0 0 0-1.758H2.03a.879.879 0 0 0 0 1.757ZM3.892 5.023c.176.522.6.908 1.135 1.034a1.57 1.57 0 0 0 1.478-.419l.758-.755.96 2.667a.88.88 0 1 0 1.653-.595l-1.054-2.93a1.572 1.572 0 0 0-1.14-1.008 1.572 1.572 0 0 0-1.462.423l-.753.75-.838-2.487a.879.879 0 0 0-1.666.56l.93 2.76Z" opacity=".2"/><path d="M55.521 28.752a.879.879 0 0 0 .879-.879v-.526a.879.879 0 0 0-1.758 0v.526c0 .486.394.88.88.88Zm0 3.904a.879.879 0 0 0 .879-.879v-.526a.879.879 0 1 0-1.758 0v.526a.88.88 0 0 0 .88.879Zm-1.571-3.973h-.526a.879.879 0 1 0 0 1.758h.526a.879.879 0 0 0 0-1.758Zm2.264.879c0 .486.393.88.879.88h.525a.879.879 0 0 0 0-1.759h-.525a.879.879 0 0 0-.88.88Z"/><path d="M51.122 8.08a.876.876 0 0 0 1.124-.53l.96-2.667.758.755c.39.389.942.545 1.477.42a1.57 1.57 0 0 0 1.136-1.035l.928-2.76a.879.879 0 0 0-1.666-.56l-.837 2.488-.753-.75a1.572 1.572 0 0 0-1.462-.423c-.53.119-.956.495-1.14 1.006l-1.055 2.932a.879.879 0 0 0 .53 1.124Z" opacity=".2"/><path d="M58.93 46.962c-.775-1.997-2.596-5.47-5.413-10.323a.879.879 0 0 0-1.52.882c2.771 4.774 4.552 8.165 5.294 10.077.95 2.452 1.19 4.626.695 6.287-.469 1.568-1.583 2.703-3.313 3.374-1.73.67-3.318.583-4.721-.26-1.486-.892-2.774-2.66-3.725-5.112-1.811-4.672-4.51-18.89-5.134-22.245l4.994-1.936a427.808 427.808 0 0 1 3.904 6.408.879.879 0 1 0 1.51-.9 412.994 412.994 0 0 0-1.806-2.996 3.479 3.479 0 0 0 2.051-2.849 3.467 3.467 0 0 0-.233-1.604 3.438 3.438 0 0 0 1.896-3.087c0-.929-.38-1.83-1.046-2.478a3.463 3.463 0 0 0-.747-4.924 3.468 3.468 0 0 0-2.483-4.346 3.802 3.802 0 0 0-.06-.484 3.486 3.486 0 0 0-3.014-2.739 3.537 3.537 0 0 0-.558-.015c-.01 0-.03.002-.055-.022a.152.152 0 0 1-.045-.11v-.026a4.219 4.219 0 0 0-3.615-4.17C41.085 1.92 39.9 1.189 38.541 1.39c-.072.01-.144.018-.215.025a3.293 3.293 0 0 0-.683.123.813.813 0 0 1-.768-.155 3.405 3.405 0 0 0-4.011-.303c-.27.168-.58.22-.85.144a3.43 3.43 0 0 0-2.051.057c-.28.097-.613.04-.893-.15a3.386 3.386 0 0 0-1.92-.593c-.735 0-1.435.231-2.024.668a.963.963 0 0 1-.961.132 3.725 3.725 0 0 0-1.482-.304 3.732 3.732 0 0 0-3.188 1.774c-.194.311-.505.504-.832.516a4.409 4.409 0 0 0-.125.006c-2.123.14-3.851 1.912-3.935 4.035a4.17 4.17 0 0 0-.003.212.103.103 0 0 1-.035.076.131.131 0 0 1-.095.038 3.52 3.52 0 0 0-.526.016 3.486 3.486 0 0 0-3.016 2.737c-.03.15-.05.32-.061.487a3.468 3.468 0 0 0-2.484 4.346 3.463 3.463 0 0 0-.746 4.923 3.477 3.477 0 0 0-1.045 2.479c0 1.316.726 2.494 1.897 3.087a3.441 3.441 0 0 0-.234 1.61 3.479 3.479 0 0 0 2.05 2.842c-.553.91-1.165 1.924-1.805 2.996a.879.879 0 1 0 1.51.9c1.704-2.856 3.22-5.31 3.903-6.408l4.994 1.936c-.623 3.355-3.322 17.573-5.134 22.245-.95 2.453-2.239 4.22-3.725 5.113-1.403.842-2.992.93-4.72.259-1.73-.67-2.845-1.806-3.313-3.374-.496-1.66-.256-3.835.695-6.287.741-1.912 2.522-5.302 5.293-10.077a.879.879 0 0 0-1.52-.882c-2.817 4.853-4.638 8.327-5.412 10.323-1.109 2.86-1.358 5.359-.74 7.426.623 2.086 2.13 3.645 4.36 4.51.968.375 1.923.562 2.847.562l32.313.002a.879.879 0 0 0 0-1.758H12.05c1.353-1.175 2.481-2.91 3.362-5.181.703-1.814 1.518-4.926 2.297-8.296 2.38-.344 3.963-.894 4.78-1.237a7.6 7.6 0 0 0 2.142 1.599 11.803 11.803 0 0 0 5.268 1.233 11.79 11.79 0 0 0 5.153-1.178 7.691 7.691 0 0 0 2.23-1.65c.846.354 2.507.928 5.017 1.268.776 3.356 1.588 6.453 2.29 8.261.88 2.271 2.008 4.006 3.361 5.181h-4.115a.879.879 0 0 0 0 1.758l8.627-.002c.924 0 1.88-.187 2.846-.562 2.23-.865 3.738-2.424 4.362-4.51.617-2.067.368-4.566-.74-7.426ZM30 38.1c-3.866 0-7.468-2.387-9.69-6.402.264-1.387.43-2.298.458-2.454a.878.878 0 0 0-.502-.957v-2.438c0-2.078.634-4.073 1.833-5.77l1.774-2.51c2.29 1.41 4.208 1.537 6.127 1.537 1.919 0 3.837-.127 6.126-1.537l1.775 2.51a9.942 9.942 0 0 1 1.833 5.77v2.438a.878.878 0 0 0-.502.957c.028.156.194 1.067.458 2.454C37.47 35.709 33.857 38.1 30 38.1Zm-6.602-23.25a1.111 1.111 0 0 1-.259.713l-.147.208a.858.858 0 0 0-.122.173l-2.206 3.121a11.69 11.69 0 0 0-2.156 6.784v1.755l-3.047-1.182-.169-3.377a5.356 5.356 0 0 1 1.815-4.306l5.412-4.776a.528.528 0 0 1 .879.397v.49Zm21.31 8.195-.17 3.377-3.046 1.182v-1.755a11.69 11.69 0 0 0-2.156-6.784l-2.206-3.122a.91.91 0 0 0-.122-.172l-.147-.208a1.112 1.112 0 0 1-.259-.714v-.49a.528.528 0 0 1 .88-.396l5.412 4.776a5.357 5.357 0 0 1 1.814 4.306Zm-31.9 3.113c-.011.017-.627 1-1.57 2.537a1.709 1.709 0 0 1-1.232-1.477 1.698 1.698 0 0 1 .116-.8c.344-.846-.015-1.815-.817-2.208a1.693 1.693 0 0 1-.955-1.53c0-.471.188-.91.53-1.235.635-.604.71-1.609.172-2.287a1.705 1.705 0 0 1 .37-2.462 1.707 1.707 0 0 0 .649-1.912 1.705 1.705 0 0 1 1.631-2.196c.288 0 .845-.189.89-.902.004-.057.007-.138.01-.232.006-.188.016-.502.047-.652a1.712 1.712 0 0 1 1.744-1.354 1.896 1.896 0 0 0 1.394-.53 1.87 1.87 0 0 0 .57-1.358c0-.041 0-.083.002-.124a2.479 2.479 0 0 1 2.366-2.354c.914-.033 1.76-.536 2.263-1.346a1.985 1.985 0 0 1 1.695-.944c.274 0 .538.054.787.161.878.379 1.914.25 2.702-.334.285-.21.623-.322.979-.322.333 0 .654.099.927.286.738.504 1.658.638 2.462.36.316-.11.67-.12.992-.028.746.213 1.57.088 2.262-.343a1.646 1.646 0 0 1 1.938.147 2.582 2.582 0 0 0 2.44.496c.078-.024.202-.037.334-.05.096-.01.194-.02.292-.035.82-.121 1.293.655 1.546 1.328.211.562.66.622.844.622a2.457 2.457 0 0 1 2.455 2.455v.012a1.921 1.921 0 0 0 .59 1.396c.37.352.853.533 1.36.506a1.711 1.711 0 0 1 1.759 1.354c.03.15.04.463.046.65.003.095.006.176.01.233.045.713.603.902.89.902a1.706 1.706 0 0 1 1.632 2.196c-.22.725.041 1.494.648 1.912a1.705 1.705 0 0 1 .37 2.462c-.538.678-.462 1.683.173 2.287.342.325.53.764.53 1.235 0 .655-.366 1.242-.956 1.53-.801.393-1.16 1.362-.817 2.207a1.701 1.701 0 0 1-1.115 2.278c-.944-1.537-1.56-2.52-1.57-2.537a.878.878 0 0 0-.861-.404l.131-2.62a7.105 7.105 0 0 0-2.407-5.713l-5.412-4.776a2.278 2.278 0 0 0-1.889-.541 2.28 2.28 0 0 0-1.91 2.255v.49c0 .439.104.872.296 1.263-1.871 1.136-3.393 1.236-5.141 1.236-1.748 0-3.27-.1-5.141-1.236.192-.391.296-.824.296-1.263v-.49a2.28 2.28 0 0 0-1.91-2.255 2.278 2.278 0 0 0-1.89.54l-5.412 4.777a7.104 7.104 0 0 0-2.407 5.712l.132 2.62a.879.879 0 0 0-.86.405Zm7.016 8.058c1.172 1.634 2.577 2.954 4.136 3.905a11.004 11.004 0 0 1-1.813 3.097c-.406.194-1.737.77-4.02 1.164.64-2.878 1.234-5.805 1.697-8.166Zm14.46 8.848a10.1 10.1 0 0 1-8.868-.047 5.836 5.836 0 0 1-1.553-1.13 12.749 12.749 0 0 0 1.67-2.954c1.414.604 2.92.925 4.467.925a11.3 11.3 0 0 0 4.265-.844c.421 1.03.97 1.995 1.641 2.88a5.913 5.913 0 0 1-1.622 1.17Zm3.332-1.846a10.976 10.976 0 0 1-1.77-2.984c1.635-.96 3.11-2.32 4.33-4.02a343.667 343.667 0 0 0 1.706 8.21c-2.435-.396-3.85-1.006-4.266-1.206Z"/></g><defs><clipPath id="a"><path fill="#fff" d="M0 0h60v60H0z"/></clipPath></defs></svg>