<svg xmlns="http://www.w3.org/2000/svg" width="43" height="41" fill="none"><path fill="#fff" d="M22.899.485c.299.238.633.517.79.873v.167h.083c.092.19.108.375.125.582h.083l.029.151c.036.164.086.316.145.473.118.32.208.646.298.974q.112.41.238.818c.445 1.465.7 2.966.9 4.48l.068.498c.145 1.132.166 2.254.163 3.393a140 140 0 0 0 0 1.155v.238c.002.494-.024.977-.084 1.468q-.023.22-.038.441c-.07.958-.214 1.903-.405 2.844l-.088.463a23 23 0 0 1-.652 2.615 226 226 0 0 1-.475 1.562l-.048.158c-.051.152-.11.295-.176.442l-.065.172a7 7 0 0 1-.104.267c-.042.106-.042.106-.075.234-.279.945-.78 1.856-1.212 2.738l-.053.11a26 26 0 0 1-.904 1.68l-.076.133a30 30 0 0 1-1.879 2.861l-.066.09q-.372.504-.766.992l-.076.097a24 24 0 0 1-1.047 1.225q-.113.126-.224.254a24 24 0 0 1-1.14 1.207l-.238.24c-.228.227-.454.453-.7.662-.114.097-.222.2-.332.303q-.3.28-.62.535-.152.127-.302.256c-.32.277-.66.523-1.006.768l-.469.337-.092.066q-.249.18-.493.361l-.105.079-.198.148a4.4 4.4 0 0 1-1.075.618c-.596.204-1.316.123-1.871-.147a3.4 3.4 0 0 1-.786-.603l-.079-.074c-.346-.355-.598-.888-.628-1.382l-.007-.083a8 8 0 0 1-.014-.291l-.006-.089c-.004-.354.13-.683.242-1.014l.126-.389.163-.502.036-.111a335 335 0 0 1 1.21-3.63l.04-.114.074-.203a3 3 0 0 0 .128-.465c.042-.217.105-.423.176-.632l.04-.117.127-.379.088-.265.233-.695q.12-.353.237-.707l.382-1.141.066-.195.076-.225c.204-.636.091-1.337-.196-1.922-.31-.528-.757-.857-1.251-1.198q-.239-.166-.473-.338l-.187-.136q-.936-.674-1.872-1.352l-.093-.067-.188-.135-.466-.337q-.637-.46-1.27-.927a49 49 0 0 0-.877-.632 84 84 0 0 1-1.614-1.167 42 42 0 0 0-.6-.435C.94 18.21.476 17.815.184 17.166l-.046-.1a2.67 2.67 0 0 1 .12-1.99c.12-.225.258-.422.426-.614l.074-.085c.416-.45 1.026-.767 1.645-.792a24 24 0 0 1 .501-.002h.798l1.853-.003h.487l1.106-.003h.102l1.636-.002 1.681-.003h1.036l1.12-.002c.759.013.759.013 1.481-.19l.122-.054c.763-.362 1.105-1.016 1.376-1.776a75 75 0 0 0 .4-1.164c.25-.69.25-.69.426-1.4.057-.308.168-.602.27-.899l.196-.582.04-.122q.22-.652.43-1.306l.038-.114q.226-.696.447-1.394a33 33 0 0 1 .283-.843l.165-.475c.117-.336.22-.67.305-1.016.031-.108.067-.195.12-.294l.036-.133c.099-.334.244-.595.463-.866l.09-.124a2.34 2.34 0 0 1 .908-.624l.12-.047a2.77 2.77 0 0 1 2.46.338m6.574 13.105q2.08-.008 4.163-.011h.492l.1-.001 1.583-.005q.813-.003 1.627-.003l1.002-.003a132 132 0 0 1 1.086-.002c.947-.007 1.725.135 2.43.816.444.472.68.98.704 1.621l.003.085c.025.701-.128 1.262-.604 1.803a5.6 5.6 0 0 1-.873.74l-.099.071q-.37.264-.74.524a84 84 0 0 0-1.201.863q-.78.561-1.55 1.135-.553.411-1.117.804c-.524.365-1.039.742-1.552 1.12a77 77 0 0 1-1.244.902 65 65 0 0 0-.676.488c-.515.386-.85.94-.955 1.574a5 5 0 0 0-.019.416q0 .05-.004.103c-.002.235.042.444.11.667l.027.093q.167.543.352 1.08l.127.377.58 1.726.083.249.117.348.035.101c.067.203.114.403.154.613q.034.163.09.322l.041.122.045.129.047.138.288.84.055.16.082.24c.36 1.053.717 2.109 1.053 3.17l.045.14c.194.622.282 1.452-.01 2.054-.406.752-.974 1.299-1.8 1.555-.534.1-1.127.11-1.623-.124q-.062-.03-.125-.057c-.345-.17-.637-.395-.938-.632a16 16 0 0 0-.65-.481l-.189-.135q-.24-.172-.48-.347l-.59-.422a33 33 0 0 1-.759-.558 62 62 0 0 0-1.804-1.313q-.5-.349-.98-.72-.346-.264-.702-.511a31 31 0 0 1-.863-.626l-.298-.221c-.886-.654-1.577-1-2.688-1.008.09-.14.176-.269.3-.382.156-.152.29-.318.428-.488q.17-.209.349-.412.336-.393.65-.802l.195-.246c.386-.484.735-.99 1.08-1.506q.097-.147.197-.293.15-.222.296-.447l.055-.085a29 29 0 0 0 .853-1.406q.226-.39.423-.797h.083l.022-.072c.068-.218.153-.397.27-.593l.06-.14c.05-.118.102-.221.166-.331a3 3 0 0 0 .179-.377q.121-.304.256-.602c.402-.904.755-1.82 1.085-2.752l.045-.126c.211-.595.406-1.185.544-1.801q.08-.34.167-.677.094-.375.177-.752c.024-.097.024-.097.066-.18l.05-.32q.055-.376.131-.748a22 22 0 0 0 .32-2.017q.071-.613.126-1.227l.011-.126z"/><path fill="#fff" d="M11.912 2.736q.173.14.339.286l.098.087a3.7 3.7 0 0 1 1.122 2.417c.032 1.118-.316 2.048-1.046 2.894-.604.639-1.544 1.159-2.438 1.189-1.06.014-1.93-.16-2.77-.846l-.086-.065c-.665-.534-1.11-1.4-1.27-2.23-.066-.643-.066-1.293.15-1.907l.045-.132c.195-.508.493-.935.87-1.324l.068-.077c1.248-1.37 3.5-1.345 4.918-.292"/></svg>